# xmcd CD database file
#
# Track frame offsets:
#	150
#	23775
#	38785
#	58055
#	75000
#	95700
#	117406
#	136951
#	176701
#	193247
#	208952
#	230149
#	251421
#	273845
#
# Disc length: 3970 seconds
#
# Revision: 1
# Processed by: cddbd v1.5.2PL0 Copyright (c) Steve Scherf et al.
# Submitted via: CDex 2.04
#
DISCID=c70f800e
DTITLE=Martin Barre - Order Of Play
DYEAR=2014
DGENRE=Blues
TTITLE0=New Day Yesterday
TTITLE1=Fatman
TTITLE2=Watch Your Step
TTITLE3=Crossroads
TTITLE4=Minstrel In The Gallery
TTITLE5=To Cry You A Song
TTITLE6=Steal Your Heart Away
TTITLE7=Thick As A Brick (Excerpt)
TTITLE8=Sweet Dream
TTITLE9=Song For Jeffrey
TTITLE10=Rock Me Baby
TTITLE11=Teacher
TTITLE12=Still Loving You Tonight
TTITLE13=Locomotive Breath
EXTD=YEAR: 2014
EXTT0=
EXTT1=
EXTT2=
EXTT3=
EXTT4=
EXTT5=
EXTT6=
EXTT7=
EXTT8=
EXTT9=
EXTT10=
EXTT11=
EXTT12=
EXTT13=
PLAYORDER=
